<svg xmlns="http://www.w3.org/2000/svg" width="16" height="16" fill="none" viewBox="0 0 16 16">
  <path fill="#9AA5B4" d="M14.324 12.093h-1.281c-.088 0-.17.04-.224.108-.128.158-.264.31-.409.456a6.442 6.442 0 01-2.053 1.412 6.315 6.315 0 01-2.513.517 6.314 6.314 0 01-2.513-.517 6.442 6.442 0 01-2.054-1.412c-.59-.6-1.06-1.31-1.385-2.093A6.639 6.639 0 011.385 8c0-.891.172-1.753.507-2.564a6.551 6.551 0 013.439-3.505 6.315 6.315 0 012.513-.517c.873 0 1.718.173 2.513.517.769.331 1.46.808 2.054 1.412.144.147.278.3.408.456a.288.288 0 00.224.108h1.281c.115 0 .186-.13.122-.229C13.048 1.46 10.603-.007 7.824 0 3.457.011-.043 3.63 0 8.082.044 12.463 3.54 16 7.844 16c2.772 0 5.206-1.466 6.602-3.678.062-.099-.007-.229-.122-.229zm1.62-4.21l-2.586-2.084c-.096-.078-.237-.007-.237.117V7.33H7.4a.148.148 0 00-.146.15v1.04c0 .083.066.15.146.15h5.722v1.414c0 .124.142.195.237.117l2.586-2.084A.149.149 0 0016 8a.151.151 0 00-.056-.117z"/>
</svg>
