<svg xmlns="http://www.w3.org/2000/svg" width="17" height="13" fill="none" viewBox="0 0 17 13">
  <path stroke="#291E32" stroke-linecap="round" stroke-linejoin="round" stroke-width=".875" d="M10.715 1.088H2.43c-.38 0-.743.144-1.01.4A1.333 1.333 0 001 2.452v8.184c0 .362.15.709.418.965s.632.4 1.01.4h11.957c.379 0 .742-.144 1.01-.4s.418-.603.418-.965V5.965"/>
  <path stroke="#291E32" stroke-linecap="round" stroke-linejoin="round" stroke-width=".875" d="M3.286 3.27l5.143 3.82 3.108-2.24"/>
  <path fill="red" d="M14.714 3.816c.946 0 1.713-.732 1.713-1.635 0-.904-.767-1.636-1.713-1.636-.946 0-1.713.732-1.713 1.635 0 .904.767 1.636 1.713 1.636z"/>
  <path fill="red" d="M14.716 4.361c-.452 0-.894-.128-1.27-.367a2.206 2.206 0 01-.84-.979 2.09 2.09 0 01-.13-1.26c.088-.423.305-.811.625-1.116a2.32 2.32 0 011.17-.597 2.385 2.385 0 011.319.124c.417.165.774.445 1.025.803.251.359.385.78.385 1.212 0 .578-.241 1.132-.67 1.541a2.342 2.342 0 01-1.614.64zm0-3.27c-.226 0-.447.064-.636.183-.188.12-.335.29-.421.49-.087.199-.11.418-.066.63.044.212.152.407.312.56.16.152.364.256.585.298.222.043.452.021.661-.061.209-.083.388-.223.513-.402a1.057 1.057 0 00-.141-1.378 1.171 1.171 0 00-.807-.32z"/>
</svg>
